<svg width="86" height="64" viewBox="0 0 86 64" fill="none" xmlns="http://www.w3.org/2000/svg">
<path d="M37.6399 47.7H9.86297C9.19598 47.7 8.65527 47.1593 8.65527 46.4923V16.3C8.65527 15.633 9.19597 15.0923 9.86296 15.0923C22.3598 15.0923 35.7076 15.0923 35.7076 15.0923" stroke="#403D37" stroke-width="4.83077"/>
<path d="M48.5091 48.3039L30.3937 60.3316L30.3937 36.2761L48.5091 48.3039Z" fill="#403D37"/>
<path d="M48.5091 15.0923L76.286 15.0923C76.953 15.0923 77.4937 15.633 77.4937 16.3L77.4937 46.4923C77.4937 47.1593 76.953 47.7 76.286 47.7C63.7892 47.7 50.4414 47.7 50.4414 47.7" stroke="#403D37" stroke-width="4.83077"/>
<path d="M37.6399 14.4884L55.7552 2.46067L55.7552 26.5162L37.6399 14.4884Z" fill="#403D37"/>
</svg>
