<svg width="43" height="44" viewBox="0 0 43 44" fill="none" xmlns="http://www.w3.org/2000/svg">
<path d="M21.5001 2.22583C17.5891 2.22583 13.766 3.38557 10.5141 5.55839C7.26224 7.73121 4.72773 10.8195 3.23106 14.4328C1.7344 18.0461 1.3428 22.022 2.1058 25.8578C2.86879 29.6937 4.7521 33.2171 7.51758 35.9826C10.2831 38.7481 13.8065 40.6314 17.6423 41.3944C21.4781 42.1574 25.4541 41.7658 29.0674 40.2691C32.6806 38.7724 35.7689 36.2379 37.9418 32.9861C40.1146 29.7342 41.2743 25.9111 41.2743 22.0001C41.2743 16.7556 39.191 11.726 35.4826 8.01757C31.7742 4.30918 26.7445 2.22583 21.5001 2.22583Z" stroke="#1E1E1E" stroke-width="3.5" stroke-miterlimit="10"/>
<path d="M16 16.2949C16 16.2949 16.0814 14.5982 17.8974 13.137C18.9746 12.2693 20.266 12.0182 21.4295 12.0007C22.4892 11.9872 23.4355 12.1626 24.0017 12.4322C24.9712 12.8937 26.859 14.0203 26.859 16.4161C26.859 18.9369 25.2107 20.0819 23.3327 21.3414C21.4547 22.6008 20.9447 23.9679 20.9447 25.3805" stroke="#1E1E1E" stroke-width="3.63176" stroke-miterlimit="10" stroke-linecap="round"/>
<path d="M20.939 33.3613C22.01 33.3613 22.8781 32.4931 22.8781 31.4222C22.8781 30.3513 22.01 29.4831 20.939 29.4831C19.8681 29.4831 18.9999 30.3513 18.9999 31.4222C18.9999 32.4931 19.8681 33.3613 20.939 33.3613Z" fill="#1E1E1E"/>
</svg>
