<svg width="17" height="24" viewBox="0 0 17 24" fill="none" xmlns="http://www.w3.org/2000/svg">
<path d="M8.50006 14.1631C6.72149 14.1631 5.29649 12.6821 5.29649 10.8473L5.28578 4.21575C5.28578 2.38102 6.72149 0.899963 8.50006 0.899963C10.2786 0.899963 11.7143 2.38102 11.7143 4.21575V10.8473C11.7143 12.6821 10.2786 14.1631 8.50006 14.1631ZM6.10352e-05 10.8473H2.82149C2.82149 14.1631 5.54292 16.4842 8.50006 16.4842C11.4572 16.4842 14.1786 14.1631 14.1786 10.8473H17.0001C17.0001 14.6163 13.0858 18.7331 9.57149 19.2747V23.9H7.42863V19.2747C3.91435 18.7331 6.10352e-05 14.6163 6.10352e-05 10.8473Z" fill="#171614"/>
</svg>
