<svg width="225" height="29" viewBox="0 0 225 29" fill="none" xmlns="http://www.w3.org/2000/svg">
<path d="M49.315 27.5V1.31818H52.4854V12.9773H66.4457V1.31818H69.6161V27.5H66.4457V15.7898H52.4854V27.5H49.315ZM75.5543 27.5V7.86364H78.5714V27.5H75.5543ZM77.0884 4.59091C76.5004 4.59091 75.9933 4.39062 75.5671 3.99006C75.1495 3.58949 74.9407 3.10795 74.9407 2.54545C74.9407 1.98295 75.1495 1.50142 75.5671 1.10085C75.9933 0.700284 76.5004 0.5 77.0884 0.5C77.6765 0.5 78.1793 0.700284 78.5969 1.10085C79.0231 1.50142 79.2362 1.98295 79.2362 2.54545C79.2362 3.10795 79.0231 3.58949 78.5969 3.99006C78.1793 4.39062 77.6765 4.59091 77.0884 4.59091ZM91.5121 27.9091C89.8757 27.9091 88.4311 27.4957 87.1783 26.669C85.9254 25.8338 84.9453 24.6577 84.2379 23.1406C83.5305 21.6151 83.1768 19.8125 83.1768 17.733C83.1768 15.6705 83.5305 13.8807 84.2379 12.3636C84.9453 10.8466 85.9297 9.67472 87.1911 8.84801C88.4524 8.02131 89.9098 7.60795 91.5632 7.60795C92.8416 7.60795 93.8516 7.82102 94.593 8.24716C95.343 8.66477 95.9141 9.14205 96.3061 9.67898C96.7067 10.2074 97.0178 10.642 97.2393 10.983H97.495V1.31818H100.512V27.5H97.5973V24.483H97.2393C97.0178 24.8409 96.7024 25.2926 96.2933 25.8381C95.8842 26.375 95.3004 26.8565 94.5419 27.2827C93.7834 27.7003 92.7734 27.9091 91.5121 27.9091ZM91.9212 25.1989C93.1314 25.1989 94.1541 24.8835 94.9893 24.2528C95.8246 23.6136 96.4595 22.7315 96.8942 21.6065C97.3288 20.473 97.5462 19.1648 97.5462 17.6818C97.5462 16.2159 97.3331 14.9332 96.907 13.8338C96.4808 12.7259 95.8501 11.8651 95.0149 11.2514C94.1797 10.6293 93.1484 10.3182 91.9212 10.3182C90.6428 10.3182 89.5774 10.6463 88.7251 11.3026C87.8814 11.9503 87.2464 12.8324 86.8203 13.9489C86.4027 15.0568 86.1939 16.3011 86.1939 17.6818C86.1939 19.0795 86.407 20.3494 86.8331 21.4915C87.2678 22.625 87.907 23.5284 88.7507 24.2017C89.603 24.8665 90.6598 25.1989 91.9212 25.1989ZM114.69 27.9091C112.798 27.9091 111.165 27.4915 109.793 26.6562C108.43 25.8125 107.377 24.6364 106.636 23.1278C105.903 21.6108 105.536 19.8466 105.536 17.8352C105.536 15.8239 105.903 14.0511 106.636 12.517C107.377 10.9744 108.408 9.77273 109.729 8.91193C111.059 8.04261 112.61 7.60795 114.383 7.60795C115.406 7.60795 116.415 7.77841 117.413 8.11932C118.41 8.46023 119.317 9.0142 120.136 9.78125C120.954 10.5398 121.606 11.5455 122.092 12.7983C122.577 14.0511 122.82 15.5937 122.82 17.4261V18.7045H107.684V16.0966H119.752C119.752 14.9886 119.531 14 119.087 13.1307C118.653 12.2614 118.031 11.5753 117.221 11.0724C116.42 10.5696 115.474 10.3182 114.383 10.3182C113.181 10.3182 112.141 10.6165 111.263 11.2131C110.394 11.8011 109.725 12.5682 109.256 13.5142C108.788 14.4602 108.553 15.4744 108.553 16.5568V18.2955C108.553 19.7784 108.809 21.0355 109.32 22.0668C109.84 23.0895 110.56 23.8693 111.481 24.4062C112.401 24.9347 113.471 25.1989 114.69 25.1989C115.482 25.1989 116.198 25.0881 116.837 24.8665C117.485 24.6364 118.043 24.2955 118.512 23.8438C118.981 23.3835 119.343 22.8125 119.599 22.1307L122.513 22.9489C122.207 23.9375 121.691 24.8068 120.967 25.5568C120.242 26.2983 119.347 26.8778 118.282 27.2955C117.217 27.7045 116.019 27.9091 114.69 27.9091ZM137.944 27.5V1.31818H153.643V4.13068H141.114V12.9773H152.467V15.7898H141.114V27.5H137.944ZM160.607 1.31818L167.357 12.2102H167.561L174.311 1.31818H178.044L169.811 14.4091L178.044 27.5H174.311L167.561 16.8125H167.357L160.607 27.5H156.874L165.311 14.4091L156.874 1.31818H160.607Z" fill="#171614"/>
<path d="M210.47 6.32752C211.316 5.42929 212.69 5.42929 213.536 6.32752L224.365 17.825C225.212 18.7232 225.212 20.1819 224.365 21.0802C223.519 21.9784 222.146 21.9784 221.299 21.0802L212 11.2067L202.701 21.073C201.854 21.9712 200.481 21.9712 199.635 21.073C198.788 20.1747 198.788 18.716 199.635 17.8178L210.464 6.32034L210.47 6.32752Z" fill="#171614"/>
</svg>
