<svg width="74" height="17" viewBox="0 0 74 17" fill="none" xmlns="http://www.w3.org/2000/svg">
<path d="M0.915094 16.46V0.139961H6.00309C7.57109 0.139961 8.76309 0.555961 9.57909 1.38796C10.4111 2.20396 10.8271 3.29996 10.8271 4.67596V5.94796C10.8271 7.32396 10.4111 8.42796 9.57909 9.25996C8.76309 10.092 7.57109 10.508 6.00309 10.508H3.00309V16.46H0.915094ZM6.00309 2.10796H3.00309V8.56396H6.00309C6.86709 8.56396 7.52309 8.33196 7.97109 7.86796C8.43509 7.40396 8.66709 6.76396 8.66709 5.94796V4.67596C8.66709 3.87596 8.43509 3.25196 7.97109 2.80396C7.52309 2.33996 6.86709 2.10796 6.00309 2.10796ZM16.55 10.076V16.46H14.462V0.139961H19.574C21.11 0.139961 22.294 0.547961 23.126 1.36396C23.974 2.16396 24.398 3.23596 24.398 4.57996V5.61196C24.398 6.57196 24.174 7.40396 23.726 8.10796C23.294 8.81196 22.67 9.33196 21.854 9.66796C22.542 10.772 23.182 11.892 23.774 13.028C24.366 14.164 24.91 15.308 25.406 16.46H23.006C22.094 14.284 21.03 12.156 19.814 10.076H16.55ZM19.574 2.05996H16.55V8.15596H19.574C20.39 8.15596 21.038 7.93196 21.518 7.48396C21.998 7.01996 22.238 6.39596 22.238 5.61196V4.57996C22.238 3.77996 21.998 3.16396 21.518 2.73196C21.038 2.28396 20.39 2.05996 19.574 2.05996ZM37.996 14.516V16.46H28.876V0.139961H37.756V2.10796H30.964V7.21996H37.036V9.18796H30.964V14.516H37.996ZM40.2854 10.052V8.32396H47.0054V10.052H40.2854ZM58.8998 9.59596H52.9718V16.46H50.8838V0.139961H59.6198V2.10796H52.9718V7.62796H58.8998V9.59596ZM70.7765 16.46L66.8885 9.81196L63.1445 16.46H60.9605L65.8085 8.03596L61.2005 0.139961H63.5765L67.1765 6.35596L70.7045 0.139961H72.8645L68.2565 8.13196L73.1285 16.46H70.7765Z" fill="#403D37"/>
<path d="M0.915094 16.46H0.613171V16.7619H0.915094V16.46ZM0.915094 0.139961V-0.161962H0.613171V0.139961H0.915094ZM9.57909 1.38796L9.3635 1.59941L9.36768 1.60351L9.57909 1.38796ZM9.57909 9.25996L9.36559 9.04646L9.36354 9.04855L9.57909 9.25996ZM3.00309 10.508V10.206H2.70117V10.508H3.00309ZM3.00309 16.46V16.7619H3.30502V16.46H3.00309ZM3.00309 2.10796V1.80604H2.70117V2.10796H3.00309ZM3.00309 8.56396H2.70117V8.86588H3.00309V8.56396ZM7.97109 7.86796L7.75757 7.65444L7.75389 7.65825L7.97109 7.86796ZM7.97109 2.80396L7.75376 3.0138L7.76138 3.02116L7.97109 2.80396ZM1.21702 16.46V0.139961H0.613171V16.46H1.21702ZM0.915094 0.441884H6.00309V-0.161962H0.915094V0.441884ZM6.00309 0.441884C7.51894 0.441884 8.62181 0.843092 9.36354 1.59937L9.79465 1.17655C8.90438 0.268829 7.62325 -0.161962 6.00309 -0.161962V0.441884ZM9.36768 1.60351C10.1314 2.35254 10.5252 3.36524 10.5252 4.67596H11.129C11.129 3.23468 10.6908 2.05538 9.7905 1.17241L9.36768 1.60351ZM10.5252 4.67596V5.94796H11.129V4.67596H10.5252ZM10.5252 5.94796C10.5252 7.25852 10.1314 8.28066 9.3656 9.04647L9.79259 9.47345C10.6908 8.57526 11.129 7.3894 11.129 5.94796H10.5252ZM9.36354 9.04855C8.62181 9.80483 7.51894 10.206 6.00309 10.206V10.8099C7.62325 10.8099 8.90438 10.3791 9.79465 9.47137L9.36354 9.04855ZM6.00309 10.206H3.00309V10.8099H6.00309V10.206ZM2.70117 10.508V16.46H3.30502V10.508H2.70117ZM3.00309 16.158H0.915094V16.7619H3.00309V16.158ZM6.00309 1.80604H3.00309V2.40988H6.00309V1.80604ZM2.70117 2.10796V8.56396H3.30502V2.10796H2.70117ZM3.00309 8.86588H6.00309V8.26204H3.00309V8.86588ZM6.00309 8.86588C6.92016 8.86588 7.66607 8.61855 8.1883 8.07767L7.75389 7.65825C7.38011 8.04537 6.81403 8.26204 6.00309 8.26204V8.86588ZM8.18459 8.08145C8.7183 7.54774 8.96902 6.8234 8.96902 5.94796H8.36517C8.36517 6.70452 8.15189 7.26018 7.7576 7.65447L8.18459 8.08145ZM8.96902 5.94796V4.67596H8.36517V5.94796H8.96902ZM8.96902 4.67596C8.96902 3.81501 8.71728 3.10473 8.18081 2.58676L7.76138 3.02116C8.15291 3.39919 8.36517 3.93691 8.36517 4.67596H8.96902ZM8.1883 2.59425C7.66607 2.05337 6.92016 1.80604 6.00309 1.80604V2.40988C6.81403 2.40988 7.38011 2.62655 7.75389 3.01367L8.1883 2.59425ZM16.55 10.076V9.77404H16.248V10.076H16.55ZM16.55 16.46V16.7619H16.8519V16.46H16.55ZM14.462 16.46H14.16V16.7619H14.462V16.46ZM14.462 0.139961V-0.161962H14.16V0.139961H14.462ZM23.126 1.36396L22.9145 1.57956L22.9188 1.58358L23.126 1.36396ZM23.726 8.10796L23.4712 7.94584L23.4686 7.95005L23.726 8.10796ZM21.854 9.66796L21.739 9.38878L21.4089 9.52469L21.5977 9.82765L21.854 9.66796ZM23.774 13.028L23.5062 13.1675L23.5062 13.1675L23.774 13.028ZM25.406 16.46V16.7619H25.8647L25.6833 16.3406L25.406 16.46ZM23.006 16.46L22.7275 16.5767L22.8051 16.7619H23.006V16.46ZM19.814 10.076L20.0746 9.92358L19.9872 9.77404H19.814V10.076ZM16.55 2.05996V1.75804H16.248V2.05996H16.55ZM16.55 8.15596H16.248V8.45788H16.55V8.15596ZM21.518 7.48396L21.724 7.70472L21.7278 7.70104L21.518 7.48396ZM21.518 2.73196L21.3119 2.95272L21.316 2.95638L21.518 2.73196ZM16.248 10.076V16.46H16.8519V10.076H16.248ZM16.55 16.158H14.462V16.7619H16.55V16.158ZM14.7639 16.46V0.139961H14.16V16.46H14.7639ZM14.462 0.441884H19.574V-0.161962H14.462V0.441884ZM19.574 0.441884C21.0569 0.441884 22.1552 0.834746 22.9146 1.57952L23.3374 1.14841C22.4328 0.261175 21.163 -0.161962 19.574 -0.161962V0.441884ZM22.9188 1.58358C23.6969 2.31765 24.096 3.30519 24.096 4.57996H24.6999C24.6999 3.16673 24.251 2.01027 23.3332 1.14434L22.9188 1.58358ZM24.096 4.57996V5.61196H24.6999V4.57996H24.096ZM24.096 5.61196C24.096 6.52338 23.884 7.29726 23.4712 7.94587L23.9807 8.27006C24.4639 7.51066 24.6999 6.62054 24.6999 5.61196H24.096ZM23.4686 7.95005C23.0724 8.59575 22.5002 9.07535 21.739 9.38878L21.9689 9.94714C22.8397 9.58857 23.5155 9.02817 23.9833 8.26587L23.4686 7.95005ZM21.5977 9.82765C22.2817 10.9252 22.9179 12.0385 23.5062 13.1675L24.0417 12.8884C23.4461 11.7455 22.8022 10.6187 22.1102 9.50828L21.5977 9.82765ZM23.5062 13.1675C24.0949 14.297 24.6357 15.4343 25.1287 16.5794L25.6833 16.3406C25.1843 15.1816 24.6371 14.0309 24.0417 12.8884L23.5062 13.1675ZM25.406 16.158H23.006V16.7619H25.406V16.158ZM23.2844 16.3433C22.3672 14.1547 21.2972 12.0148 20.0746 9.92358L19.5533 10.2283C20.7627 12.2971 21.8208 14.4132 22.7275 16.5767L23.2844 16.3433ZM19.814 9.77404H16.55V10.3779H19.814V9.77404ZM19.574 1.75804H16.55V2.36188H19.574V1.75804ZM16.248 2.05996V8.15596H16.8519V2.05996H16.248ZM16.55 8.45788H19.574V7.85404H16.55V8.45788ZM19.574 8.45788C20.447 8.45788 21.1753 8.21677 21.724 7.70468L21.312 7.26324C20.9006 7.64715 20.3329 7.85404 19.574 7.85404V8.45788ZM21.7278 7.70104C22.2769 7.17024 22.5399 6.46235 22.5399 5.61196H21.936C21.936 6.32957 21.719 6.86969 21.3081 7.26688L21.7278 7.70104ZM22.5399 5.61196V4.57996H21.936V5.61196H22.5399ZM22.5399 4.57996C22.5399 3.7164 22.2783 3.01004 21.7199 2.50754L21.316 2.95638C21.7177 3.31788 21.936 3.84352 21.936 4.57996H22.5399ZM21.724 2.51124C21.1753 1.99915 20.447 1.75804 19.574 1.75804V2.36188C20.3329 2.36188 20.9006 2.56877 21.312 2.95268L21.724 2.51124ZM37.996 14.516H38.298V14.214H37.996V14.516ZM37.996 16.46V16.7619H38.298V16.46H37.996ZM28.876 16.46H28.5741V16.7619H28.876V16.46ZM28.876 0.139961V-0.161962H28.5741V0.139961H28.876ZM37.756 0.139961H38.058V-0.161962H37.756V0.139961ZM37.756 2.10796V2.40988H38.058V2.10796H37.756ZM30.964 2.10796V1.80604H30.6621V2.10796H30.964ZM30.964 7.21996H30.6621V7.52188H30.964V7.21996ZM37.036 7.21996H37.338V6.91804H37.036V7.21996ZM37.036 9.18796V9.48988H37.338V9.18796H37.036ZM30.964 9.18796V8.88604H30.6621V9.18796H30.964ZM30.964 14.516H30.6621V14.8179H30.964V14.516ZM37.6941 14.516V16.46H38.298V14.516H37.6941ZM37.996 16.158H28.876V16.7619H37.996V16.158ZM29.178 16.46V0.139961H28.5741V16.46H29.178ZM28.876 0.441884H37.756V-0.161962H28.876V0.441884ZM37.4541 0.139961V2.10796H38.058V0.139961H37.4541ZM37.756 1.80604H30.964V2.40988H37.756V1.80604ZM30.6621 2.10796V7.21996H31.266V2.10796H30.6621ZM30.964 7.52188H37.036V6.91804H30.964V7.52188ZM36.7341 7.21996V9.18796H37.338V7.21996H36.7341ZM37.036 8.88604H30.964V9.48988H37.036V8.88604ZM30.6621 9.18796V14.516H31.266V9.18796H30.6621ZM30.964 14.8179H37.996V14.214H30.964V14.8179ZM40.2854 10.052H39.9835V10.3539H40.2854V10.052ZM40.2854 8.32396V8.02204H39.9835V8.32396H40.2854ZM47.0054 8.32396H47.3073V8.02204H47.0054V8.32396ZM47.0054 10.052V10.3539H47.3073V10.052H47.0054ZM40.5873 10.052V8.32396H39.9835V10.052H40.5873ZM40.2854 8.62588H47.0054V8.02204H40.2854V8.62588ZM46.7035 8.32396V10.052H47.3073V8.32396H46.7035ZM47.0054 9.75004H40.2854V10.3539H47.0054V9.75004ZM58.8998 9.59596V9.89788H59.2018V9.59596H58.8998ZM52.9718 9.59596V9.29404H52.6699V9.59596H52.9718ZM52.9718 16.46V16.7619H53.2738V16.46H52.9718ZM50.8838 16.46H50.5819V16.7619H50.8838V16.46ZM50.8838 0.139961V-0.161962H50.5819V0.139961H50.8838ZM59.6198 0.139961H59.9218V-0.161962H59.6198V0.139961ZM59.6198 2.10796V2.40988H59.9218V2.10796H59.6198ZM52.9718 2.10796V1.80604H52.6699V2.10796H52.9718ZM52.9718 7.62796H52.6699V7.92988H52.9718V7.62796ZM58.8998 7.62796H59.2018V7.32604H58.8998V7.62796ZM58.8998 9.29404H52.9718V9.89788H58.8998V9.29404ZM52.6699 9.59596V16.46H53.2738V9.59596H52.6699ZM52.9718 16.158H50.8838V16.7619H52.9718V16.158ZM51.1858 16.46V0.139961H50.5819V16.46H51.1858ZM50.8838 0.441884H59.6198V-0.161962H50.8838V0.441884ZM59.3179 0.139961V2.10796H59.9218V0.139961H59.3179ZM59.6198 1.80604H52.9718V2.40988H59.6198V1.80604ZM52.6699 2.10796V7.62796H53.2738V2.10796H52.6699ZM52.9718 7.92988H58.8998V7.32604H52.9718V7.92988ZM58.5979 7.62796V9.59596H59.2018V7.62796H58.5979ZM70.7765 16.46L70.5158 16.6124L70.6033 16.7619H70.7765V16.46ZM66.8885 9.81196L67.1491 9.65954L66.8835 9.20545L66.6254 9.6638L66.8885 9.81196ZM63.1445 16.46V16.7619H63.3209L63.4075 16.6081L63.1445 16.46ZM60.9605 16.46L60.6988 16.3094L60.4384 16.7619H60.9605V16.46ZM65.8085 8.03596L66.0702 8.18656L66.1574 8.0349L66.0692 7.88378L65.8085 8.03596ZM61.2005 0.139961V-0.161962H60.6747L60.9397 0.29214L61.2005 0.139961ZM63.5765 0.139961L63.8377 -0.0113534L63.7505 -0.161962H63.5765V0.139961ZM67.1765 6.35596L66.9152 6.50727L67.1791 6.96297L67.439 6.50499L67.1765 6.35596ZM70.7045 0.139961V-0.161962H70.5287L70.4419 -0.00907015L70.7045 0.139961ZM72.8645 0.139961L73.126 0.290771L73.3871 -0.161962H72.8645V0.139961ZM68.2565 8.13196L67.9949 7.98115L67.9073 8.13306L67.9959 8.28442L68.2565 8.13196ZM73.1285 16.46V16.7619H73.6549L73.3891 16.3075L73.1285 16.46ZM71.0371 16.3075L67.1491 9.65954L66.6278 9.96438L70.5158 16.6124L71.0371 16.3075ZM66.6254 9.6638L62.8814 16.3118L63.4075 16.6081L67.1515 9.96012L66.6254 9.6638ZM63.1445 16.158H60.9605V16.7619H63.1445V16.158ZM61.2222 16.6106L66.0702 8.18656L65.5468 7.88536L60.6988 16.3094L61.2222 16.6106ZM66.0692 7.88378L61.4612 -0.0122188L60.9397 0.29214L65.5477 8.18814L66.0692 7.88378ZM61.2005 0.441884H63.5765V-0.161962H61.2005V0.441884ZM63.3152 0.291275L66.9152 6.50727L67.4377 6.20465L63.8377 -0.0113534L63.3152 0.291275ZM67.439 6.50499L70.967 0.288992L70.4419 -0.00907015L66.9139 6.20693L67.439 6.50499ZM70.7045 0.441884H72.8645V-0.161962H70.7045V0.441884ZM72.6029 -0.010849L67.9949 7.98115L68.518 8.28277L73.126 0.290771L72.6029 -0.010849ZM67.9959 8.28442L72.8679 16.6124L73.3891 16.3075L68.5171 7.9795L67.9959 8.28442ZM73.1285 16.158H70.7765V16.7619H73.1285V16.158Z" fill="#403D37"/>
</svg>
