<svg width="43" height="44" viewBox="0 0 43 44" fill="none" xmlns="http://www.w3.org/2000/svg">
<g clip-path="url(#clip0_697_194)">
<path d="M21.5 12.2273C16.1055 12.2273 11.7273 16.6055 11.7273 22C11.7273 27.3945 16.1055 31.7727 21.5 31.7727C26.8945 31.7727 31.2727 27.3945 31.2727 22C31.2727 16.6055 26.8945 12.2273 21.5 12.2273ZM1.95455 23.9545H5.86364C6.93864 23.9545 7.81818 23.075 7.81818 22C7.81818 20.925 6.93864 20.0455 5.86364 20.0455H1.95455C0.879545 20.0455 0 20.925 0 22C0 23.075 0.879545 23.9545 1.95455 23.9545ZM37.1364 23.9545H41.0455C42.1205 23.9545 43 23.075 43 22C43 20.925 42.1205 20.0455 41.0455 20.0455H37.1364C36.0614 20.0455 35.1818 20.925 35.1818 22C35.1818 23.075 36.0614 23.9545 37.1364 23.9545ZM19.5455 2.45455V6.36364C19.5455 7.43864 20.425 8.31818 21.5 8.31818C22.575 8.31818 23.4545 7.43864 23.4545 6.36364V2.45455C23.4545 1.37955 22.575 0.5 21.5 0.5C20.425 0.5 19.5455 1.37955 19.5455 2.45455ZM19.5455 37.6364V41.5455C19.5455 42.6205 20.425 43.5 21.5 43.5C22.575 43.5 23.4545 42.6205 23.4545 41.5455V37.6364C23.4545 36.5614 22.575 35.6818 21.5 35.6818C20.425 35.6818 19.5455 36.5614 19.5455 37.6364ZM9.75318 7.49727C9.57236 7.31608 9.35758 7.17233 9.12113 7.07425C8.88468 6.97616 8.63121 6.92568 8.37523 6.92568C8.11924 6.92568 7.86577 6.97616 7.62933 7.07425C7.39288 7.17233 7.17809 7.31608 6.99727 7.49727C6.81608 7.67809 6.67233 7.89288 6.57425 8.12933C6.47616 8.36577 6.42568 8.61924 6.42568 8.87523C6.42568 9.13121 6.47616 9.38468 6.57425 9.62113C6.67233 9.85758 6.81608 10.0724 6.99727 10.2532L9.06909 12.325C9.83136 13.0873 11.0823 13.0873 11.825 12.325C12.5677 11.5627 12.5873 10.3118 11.825 9.56909L9.75318 7.49727ZM33.9309 31.675C33.7501 31.4938 33.5353 31.3501 33.2989 31.252C33.0624 31.1539 32.8089 31.1034 32.553 31.1034C32.297 31.1034 32.0435 31.1539 31.8071 31.252C31.5706 31.3501 31.3558 31.4938 31.175 31.675C30.9938 31.8558 30.8501 32.0706 30.752 32.3071C30.6539 32.5435 30.6034 32.797 30.6034 33.053C30.6034 33.3089 30.6539 33.5624 30.752 33.7989C30.8501 34.0353 30.9938 34.2501 31.175 34.4309L33.2468 36.5027C34.0091 37.265 35.26 37.265 36.0027 36.5027C36.1839 36.3219 36.3277 36.1071 36.4258 35.8707C36.5238 35.6342 36.5743 35.3808 36.5743 35.1248C36.5743 34.8688 36.5238 34.6153 36.4258 34.3789C36.3277 34.1424 36.1839 33.9276 36.0027 33.7468L33.9309 31.675ZM36.0027 10.2532C36.1839 10.0724 36.3277 9.85758 36.4258 9.62113C36.5238 9.38468 36.5743 9.13121 36.5743 8.87523C36.5743 8.61924 36.5238 8.36577 36.4258 8.12933C36.3277 7.89288 36.1839 7.67809 36.0027 7.49727C35.8219 7.31608 35.6071 7.17233 35.3707 7.07425C35.1342 6.97616 34.8808 6.92568 34.6248 6.92568C34.3688 6.92568 34.1153 6.97616 33.8789 7.07425C33.6424 7.17233 33.4276 7.31608 33.2468 7.49727L31.175 9.56909C30.4127 10.3314 30.4127 11.5823 31.175 12.325C31.9373 13.0677 33.1882 13.0873 33.9309 12.325L36.0027 10.2532ZM11.825 34.4309C12.0062 34.2501 12.1499 34.0353 12.248 33.7989C12.3461 33.5624 12.3966 33.3089 12.3966 33.053C12.3966 32.797 12.3461 32.5435 12.248 32.3071C12.1499 32.0706 12.0062 31.8558 11.825 31.675C11.6442 31.4938 11.4294 31.3501 11.1929 31.252C10.9565 31.1539 10.703 31.1034 10.447 31.1034C10.1911 31.1034 9.93759 31.1539 9.70114 31.252C9.4647 31.3501 9.24991 31.4938 9.06909 31.675L6.99727 33.7468C6.235 34.5091 6.235 35.76 6.99727 36.5027C7.75955 37.2455 9.01045 37.265 9.75318 36.5027L11.825 34.4309Z" fill="#1E1E1E"/>
</g>
<defs>
<clipPath id="clip0_697_194">
<rect width="43" height="43" fill="white" transform="translate(0 0.5)"/>
</clipPath>
</defs>
</svg>
