<svg width="178" height="29" viewBox="0 0 178 29" fill="none" xmlns="http://www.w3.org/2000/svg">
<path d="M31.8314 28.5V17.592H21.1394V28.5H18.0074V4.02H21.1394V14.64H31.8314V4.02H34.9634V28.5H31.8314ZM45.0656 6.324H41.7536V3.012H45.0656V6.324ZM44.8856 28.5H41.9336V10.68H44.8856V28.5ZM62.086 28.5V26.016C60.982 27.072 59.974 27.816 59.062 28.248C58.174 28.656 57.25 28.86 56.29 28.86C54.394 28.86 52.93 28.14 51.898 26.7C50.89 25.26 50.386 23.244 50.386 20.652V18.564C50.386 16.044 51.01 14.04 52.258 12.552C53.53 11.064 55.366 10.32 57.766 10.32C58.462 10.32 59.158 10.392 59.854 10.536C60.55 10.68 61.246 10.884 61.942 11.148V1.86H64.894V28.5H62.086ZM53.446 20.652C53.446 22.524 53.734 23.904 54.31 24.792C54.91 25.656 55.798 26.088 56.974 26.088C57.67 26.088 58.39 25.92 59.134 25.584C59.878 25.224 60.814 24.492 61.942 23.388V13.884C61.246 13.572 60.574 13.356 59.926 13.236C59.278 13.092 58.642 13.02 58.018 13.02C56.386 13.02 55.21 13.512 54.49 14.496C53.794 15.48 53.446 16.836 53.446 18.564V20.652ZM84.1779 27.456C83.0979 27.984 82.0179 28.344 80.9379 28.536C79.8579 28.752 78.8619 28.86 77.9499 28.86C75.3819 28.86 73.4619 28.128 72.1899 26.664C70.9419 25.2 70.3179 23.196 70.3179 20.652V18.492C70.3179 16.02 70.9419 14.04 72.1899 12.552C73.4619 11.064 75.2499 10.32 77.5539 10.32C78.7779 10.32 79.8939 10.572 80.9019 11.076C81.9339 11.556 82.7499 12.3 83.3499 13.308C83.9739 14.292 84.2859 15.564 84.2859 17.124C84.2859 18.132 84.1419 19.284 83.8539 20.58H73.2339V20.652C73.2339 22.476 73.6059 23.856 74.3499 24.792C75.1179 25.728 76.3419 26.196 78.0219 26.196C78.7899 26.196 79.6299 26.1 80.5419 25.908C81.4779 25.716 82.3899 25.416 83.2779 25.008L84.1779 27.456ZM77.5539 12.912C76.1619 12.912 75.1059 13.368 74.3859 14.28C73.6899 15.168 73.3059 16.428 73.2339 18.06H81.2979C81.3699 17.628 81.4059 17.22 81.4059 16.836C81.4059 15.492 81.0219 14.508 80.2539 13.884C79.5099 13.236 78.6099 12.912 77.5539 12.912ZM109.906 18.204H101.014V28.5H97.8824V4.02H110.986V6.972H101.014V15.252H109.906V18.204ZM127.721 28.5L121.889 18.528L116.273 28.5H112.997L120.269 15.864L113.357 4.02H116.921L122.321 13.344L127.613 4.02H130.853L123.941 16.008L131.249 28.5H127.721Z" fill="#171614"/>
<path d="M163.47 6.32752C164.316 5.42929 165.69 5.42929 166.536 6.32752L177.365 17.825C178.212 18.7232 178.212 20.1819 177.365 21.0802C176.519 21.9784 175.146 21.9784 174.299 21.0802L165 11.2067L155.701 21.073C154.854 21.9712 153.481 21.9712 152.635 21.073C151.788 20.1747 151.788 18.716 152.635 17.8178L163.464 6.32034L163.47 6.32752Z" fill="#171614"/>
</svg>
