<svg width="212" height="22" viewBox="0 0 212 22" fill="none" xmlns="http://www.w3.org/2000/svg">
<path d="M5.50057 21.0593L6.21982e-06 0.942968H2.47526L6.67927 17.3268H6.87571L11.1583 0.942968H13.9086L18.1912 17.3268H18.3876L22.5916 0.942968H25.0669L19.5663 21.0593H17.0518L12.612 5.0291H12.4549L8.01512 21.0593H5.50057ZM30.8228 21.4129C29.8668 21.4129 28.9991 21.2329 28.2199 20.8727C27.4406 20.506 26.8218 19.9789 26.3634 19.2913C25.9051 18.5972 25.6759 17.759 25.6759 16.7767C25.6759 15.9124 25.8461 15.2117 26.1866 14.6747C26.5271 14.1312 26.9823 13.7056 27.552 13.3978C28.1217 13.0901 28.7503 12.8609 29.4379 12.7103C30.132 12.5531 30.8294 12.4287 31.53 12.337C32.4468 12.2191 33.19 12.1307 33.7597 12.0718C34.336 12.0063 34.7551 11.8983 35.017 11.7477C35.2855 11.597 35.4197 11.3351 35.4197 10.9619V10.8833C35.4197 9.91413 35.1545 9.16108 34.6241 8.62412C34.1002 8.08716 33.3046 7.81868 32.2373 7.81868C31.1306 7.81868 30.2629 8.06096 29.6343 8.54554C29.0057 9.03011 28.5637 9.54743 28.3083 10.0975L26.1081 9.31169C26.501 8.39493 27.0248 7.68116 27.6796 7.1704C28.341 6.65308 29.0613 6.29292 29.8406 6.08993C30.6264 5.88038 31.3991 5.77561 32.1587 5.77561C32.6433 5.77561 33.1999 5.83454 33.8285 5.95241C34.4637 6.06373 35.0759 6.2962 35.6653 6.6498C36.2612 7.00341 36.7556 7.5371 37.1485 8.25086C37.5414 8.96463 37.7378 9.92068 37.7378 11.119V21.0593H35.4197V19.0163H35.3019C35.1447 19.3437 34.8828 19.694 34.5161 20.0673C34.1494 20.4405 33.6615 20.7581 33.0525 21.02C32.4435 21.282 31.7003 21.4129 30.8228 21.4129ZM31.1764 19.3306C32.0932 19.3306 32.8659 19.1505 33.4945 18.7903C34.1297 18.4302 34.6077 17.9653 34.9286 17.3956C35.256 16.8259 35.4197 16.2267 35.4197 15.598V13.4764C35.3215 13.5943 35.1054 13.7023 34.7714 13.8005C34.444 13.8922 34.0642 13.9741 33.632 14.0461C33.2064 14.1116 32.7906 14.1705 32.3846 14.2229C31.9851 14.2687 31.661 14.308 31.4122 14.3408C30.8097 14.4194 30.2466 14.547 29.7227 14.7239C29.2054 14.8941 28.7863 15.1528 28.4654 15.4998C28.1511 15.8403 27.994 16.3053 27.994 16.8946C27.994 17.7001 28.2919 18.309 28.8878 18.7216C29.4902 19.1276 30.2531 19.3306 31.1764 19.3306ZM53.7656 5.97206L48.1864 21.0593H45.8291L40.2499 5.97206H42.7645L46.9292 17.9947H47.0863L51.251 5.97206H53.7656ZM62.6107 21.3736C61.157 21.3736 59.903 21.0528 58.8487 20.411C57.801 19.7628 56.9923 18.8591 56.4226 17.7001C55.8594 16.5345 55.5778 15.179 55.5778 13.6336C55.5778 12.0882 55.8594 10.7261 56.4226 9.54743C56.9923 8.36218 57.7846 7.43888 58.7996 6.7775C59.8211 6.10957 61.0129 5.77561 62.375 5.77561C63.1608 5.77561 63.9367 5.90657 64.7029 6.16851C65.469 6.43044 66.1664 6.85608 66.7951 7.44542C67.4237 8.02822 67.9246 8.80092 68.2979 9.76352C68.6711 10.7261 68.8578 11.9114 68.8578 13.3192V14.3015H57.228V12.2977H66.5004C66.5004 11.4464 66.3301 10.6868 65.9896 10.0189C65.6557 9.35098 65.1776 8.82384 64.5555 8.43749C63.94 8.05114 63.2131 7.85797 62.375 7.85797C61.4516 7.85797 60.6528 8.08716 59.9783 8.54554C59.3104 8.99737 58.7963 9.58672 58.4362 10.3136C58.076 11.0404 57.8959 11.8197 57.8959 12.6513V13.9872C57.8959 15.1266 58.0924 16.0924 58.4853 16.8848C58.8847 17.6706 59.438 18.2698 60.1453 18.6823C60.8525 19.0883 61.6743 19.2913 62.6107 19.2913C63.2197 19.2913 63.7697 19.2062 64.2609 19.0359C64.7585 18.8591 65.1875 18.5972 65.5476 18.2501C65.9078 17.8965 66.1861 17.4578 66.3825 16.9339L68.622 17.5625C68.3863 18.3221 67.9901 18.9901 67.4335 19.5663C66.8769 20.136 66.1893 20.5813 65.3708 20.9022C64.5523 21.2165 63.6322 21.3736 62.6107 21.3736ZM79.1026 5.97206V7.93655H70.9696V5.97206H79.1026ZM73.4056 21.0593V3.8897C73.4056 3.02532 73.6086 2.30501 74.0145 1.72876C74.4205 1.15251 74.9477 0.720325 75.596 0.4322C76.2442 0.144075 76.9285 1.25661e-05 77.6489 1.25661e-05C78.2186 1.25661e-05 78.6835 0.0458509 79.0436 0.137528C79.4038 0.229203 79.6723 0.314331 79.8491 0.392911L79.1812 2.39669C79.0633 2.3574 78.8996 2.30829 78.69 2.24935C78.487 2.19042 78.2186 2.16095 77.8846 2.16095C77.1184 2.16095 76.5651 2.35412 76.2246 2.74047C75.8906 3.12682 75.7237 3.69325 75.7237 4.43976V21.0593H73.4056ZM87.8593 21.3736C86.4972 21.3736 85.3022 21.0495 84.2741 20.4012C83.2526 19.7529 82.4537 18.846 81.8774 17.6804C81.3077 16.5148 81.0229 15.1528 81.0229 13.5943C81.0229 12.0227 81.3077 10.6508 81.8774 9.47867C82.4537 8.30652 83.2526 7.39631 84.2741 6.74803C85.3022 6.09975 86.4972 5.77561 87.8593 5.77561C89.2213 5.77561 90.4131 6.09975 91.4346 6.74803C92.4627 7.39631 93.2616 8.30652 93.8313 9.47867C94.4076 10.6508 94.6957 12.0227 94.6957 13.5943C94.6957 15.1528 94.4076 16.5148 93.8313 17.6804C93.2616 18.846 92.4627 19.7529 91.4346 20.4012C90.4131 21.0495 89.2213 21.3736 87.8593 21.3736ZM87.8593 19.2913C88.8939 19.2913 89.7452 19.0261 90.4131 18.4957C91.081 17.9653 91.5754 17.2679 91.8963 16.4035C92.2172 15.5391 92.3776 14.6027 92.3776 13.5943C92.3776 12.5858 92.2172 11.6462 91.8963 10.7752C91.5754 9.90431 91.081 9.20037 90.4131 8.66341C89.7452 8.12645 88.8939 7.85797 87.8593 7.85797C86.8246 7.85797 85.9734 8.12645 85.3054 8.66341C84.6375 9.20037 84.1431 9.90431 83.8223 10.7752C83.5014 11.6462 83.341 12.5858 83.341 13.5943C83.341 14.6027 83.5014 15.5391 83.8223 16.4035C84.1431 17.2679 84.6375 17.9653 85.3054 18.4957C85.9734 19.0261 86.8246 19.2913 87.8593 19.2913ZM98.2342 21.0593V5.97206H100.474V8.25086H100.631C100.906 7.50436 101.404 6.89864 102.124 6.43371C102.844 5.96878 103.656 5.73632 104.56 5.73632C104.73 5.73632 104.943 5.73959 105.198 5.74614C105.454 5.75269 105.647 5.76251 105.778 5.77561V8.13299C105.699 8.11335 105.519 8.08388 105.238 8.04459C104.963 7.99875 104.671 7.97584 104.363 7.97584C103.63 7.97584 102.975 8.12972 102.399 8.43749C101.829 8.73871 101.377 9.1578 101.043 9.69476C100.716 10.2252 100.552 10.8309 100.552 11.5119V21.0593H98.2342ZM108.526 21.0593V5.97206H110.765V8.32944H110.962C111.276 7.524 111.783 6.89864 112.484 6.45336C113.185 6.00152 114.026 5.77561 115.009 5.77561C116.004 5.77561 116.832 6.00152 117.494 6.45336C118.162 6.89864 118.682 7.524 119.055 8.32944H119.213C119.599 7.5502 120.178 6.93138 120.951 6.473C121.724 6.00807 122.65 5.77561 123.731 5.77561C125.08 5.77561 126.183 6.19797 127.041 7.0427C127.899 7.88088 128.328 9.18727 128.328 10.9619V21.0593H126.01V10.9619C126.01 9.84865 125.705 9.05303 125.096 8.575C124.487 8.09698 123.77 7.85797 122.945 7.85797C121.884 7.85797 121.062 8.17883 120.48 8.82057C119.897 9.45575 119.605 10.2612 119.605 11.2369V21.0593H117.248V10.7261C117.248 9.86829 116.97 9.17745 116.413 8.65358C115.857 8.12317 115.139 7.85797 114.262 7.85797C113.66 7.85797 113.096 8.0184 112.573 8.33927C112.055 8.66013 111.636 9.10542 111.315 9.67512C111.001 10.2383 110.844 10.8898 110.844 11.6298V21.0593H108.526ZM140.66 0.942968H143.567L150.404 17.6411H150.639L157.476 0.942968H160.383V21.0593H158.104V5.77561H157.908L151.622 21.0593H149.421L143.135 5.77561H142.939V21.0593H140.66V0.942968ZM171.082 21.3736C169.72 21.3736 168.525 21.0495 167.497 20.4012C166.476 19.7529 165.677 18.846 165.1 17.6804C164.531 16.5148 164.246 15.1528 164.246 13.5943C164.246 12.0227 164.531 10.6508 165.1 9.47867C165.677 8.30652 166.476 7.39631 167.497 6.74803C168.525 6.09975 169.72 5.77561 171.082 5.77561C172.444 5.77561 173.636 6.09975 174.658 6.74803C175.686 7.39631 176.485 8.30652 177.054 9.47867C177.631 10.6508 177.919 12.0227 177.919 13.5943C177.919 15.1528 177.631 16.5148 177.054 17.6804C176.485 18.846 175.686 19.7529 174.658 20.4012C173.636 21.0495 172.444 21.3736 171.082 21.3736ZM171.082 19.2913C172.117 19.2913 172.968 19.0261 173.636 18.4957C174.304 17.9653 174.799 17.2679 175.119 16.4035C175.44 15.5391 175.601 14.6027 175.601 13.5943C175.601 12.5858 175.44 11.6462 175.119 10.7752C174.799 9.90431 174.304 9.20037 173.636 8.66341C172.968 8.12645 172.117 7.85797 171.082 7.85797C170.048 7.85797 169.196 8.12645 168.529 8.66341C167.861 9.20037 167.366 9.90431 167.045 10.7752C166.724 11.6462 166.564 12.5858 166.564 13.5943C166.564 14.6027 166.724 15.5391 167.045 16.4035C167.366 17.2679 167.861 17.9653 168.529 18.4957C169.196 19.0261 170.048 19.2913 171.082 19.2913ZM187.154 21.3736C185.897 21.3736 184.787 21.0561 183.825 20.4209C182.862 19.7791 182.109 18.8755 181.565 17.7099C181.022 16.5377 180.75 15.1528 180.75 13.555C180.75 11.9703 181.022 10.5952 181.565 9.42956C182.109 8.26396 182.865 7.36357 183.834 6.72839C184.803 6.0932 185.923 5.77561 187.194 5.77561C188.176 5.77561 188.952 5.93932 189.522 6.26673C190.098 6.5876 190.537 6.9543 190.838 7.36684C191.146 7.77284 191.385 8.1068 191.555 8.36873H191.751V0.942968H194.069V21.0593H191.83V18.7412H191.555C191.385 19.0163 191.142 19.3633 190.828 19.7824C190.514 20.195 190.065 20.5649 189.482 20.8923C188.899 21.2132 188.123 21.3736 187.154 21.3736ZM187.469 19.2913C188.399 19.2913 189.184 19.049 189.826 18.5644C190.468 18.0733 190.956 17.3956 191.29 16.5312C191.624 15.6603 191.791 14.6551 191.791 13.5157C191.791 12.3894 191.627 11.4039 191.299 10.5591C190.972 9.70786 190.487 9.04648 189.846 8.575C189.204 8.09698 188.412 7.85797 187.469 7.85797C186.486 7.85797 185.668 8.11007 185.013 8.61429C184.365 9.11196 183.877 9.78971 183.549 10.6475C183.229 11.4988 183.068 12.4549 183.068 13.5157C183.068 14.5896 183.232 15.5653 183.559 16.4428C183.893 17.3137 184.384 18.0078 185.033 18.5251C185.688 19.0359 186.499 19.2913 187.469 19.2913ZM204.962 21.3736C203.509 21.3736 202.255 21.0528 201.2 20.411C200.153 19.7628 199.344 18.8591 198.774 17.7001C198.211 16.5345 197.93 15.179 197.93 13.6336C197.93 12.0882 198.211 10.7261 198.774 9.54743C199.344 8.36218 200.136 7.43888 201.151 6.7775C202.173 6.10957 203.365 5.77561 204.727 5.77561C205.512 5.77561 206.288 5.90657 207.055 6.16851C207.821 6.43044 208.518 6.85608 209.147 7.44542C209.775 8.02822 210.276 8.80092 210.65 9.76352C211.023 10.7261 211.209 11.9114 211.209 13.3192V14.3015H199.58V12.2977H208.852C208.852 11.4464 208.682 10.6868 208.341 10.0189C208.007 9.35098 207.529 8.82384 206.907 8.43749C206.292 8.05114 205.565 7.85797 204.727 7.85797C203.803 7.85797 203.004 8.08716 202.33 8.54554C201.662 8.99737 201.148 9.58672 200.788 10.3136C200.428 11.0404 200.248 11.8197 200.248 12.6513V13.9872C200.248 15.1266 200.444 16.0924 200.837 16.8848C201.236 17.6706 201.79 18.2698 202.497 18.6823C203.204 19.0883 204.026 19.2913 204.962 19.2913C205.571 19.2913 206.121 19.2062 206.613 19.0359C207.11 18.8591 207.539 18.5972 207.899 18.2501C208.259 17.8965 208.538 17.4578 208.734 16.9339L210.974 17.5625C210.738 18.3221 210.342 18.9901 209.785 19.5663C209.229 20.136 208.541 20.5813 207.723 20.9022C206.904 21.2165 205.984 21.3736 204.962 21.3736Z" fill="#EAFFF7"/>
</svg>
