<svg width="49" height="47" viewBox="0 0 49 47" fill="none" xmlns="http://www.w3.org/2000/svg">
<path d="M20.481 4.62717L17.0852 5.89416C16.815 5.993 16.6348 6.25358 16.6348 6.54113C16.6348 6.82867 16.815 7.08925 17.0852 7.1881L20.481 8.45508L21.751 11.8427C21.8501 12.1123 22.1113 12.292 22.3995 12.292C22.6878 12.292 22.949 12.1123 23.0481 11.8427L24.3181 8.45508L27.7139 7.1881C27.9841 7.08925 28.1642 6.82867 28.1642 6.54113C28.1642 6.25358 27.9841 5.993 27.7139 5.89416L24.3181 4.62717L23.0481 1.23957C22.949 0.969997 22.6878 0.790283 22.3995 0.790283C22.1113 0.790283 21.8501 0.969997 21.751 1.23957L20.481 4.62717ZM3.49309 36.3197C1.80871 38 1.80871 40.7317 3.49309 42.421L6.60963 45.53C8.29401 47.2104 11.0322 47.2104 12.7256 45.53L47.0707 11.2586C48.755 9.57829 48.755 6.84664 47.0707 5.15733L43.9541 2.05727C42.2697 0.376941 39.5315 0.376941 37.8381 2.05727L3.49309 36.3197ZM42.9903 8.21246L33.5326 17.6474L31.4339 15.5538L40.8916 6.1188L42.9903 8.21246ZM0.0162497 11.3215C-0.389081 11.4743 -0.659302 11.8607 -0.659302 12.292C-0.659302 12.7233 -0.389081 13.1097 0.0162497 13.2624L5.1054 15.1674L7.01496 20.2443C7.16809 20.6487 7.5554 20.9182 7.98776 20.9182C8.42011 20.9182 8.80743 20.6487 8.96055 20.2443L10.8701 15.1674L15.9593 13.2624C16.3646 13.1097 16.6348 12.7233 16.6348 12.292C16.6348 11.8607 16.3646 11.4743 15.9593 11.3215L10.8701 9.41655L8.96055 4.33963C8.80743 3.93528 8.42011 3.6657 7.98776 3.6657C7.5554 3.6657 7.16809 3.93528 7.01496 4.33963L5.1054 9.41655L0.0162497 11.3215ZM31.7221 34.3249C31.3168 34.4776 31.0466 34.864 31.0466 35.2953C31.0466 35.7267 31.3168 36.113 31.7221 36.2658L36.8113 38.1708L38.7208 43.2477C38.874 43.652 39.2613 43.9216 39.6936 43.9216C40.126 43.9216 40.5133 43.652 40.6664 43.2477L42.576 38.1708L47.6651 36.2658C48.0705 36.113 48.3407 35.7267 48.3407 35.2953C48.3407 34.864 48.0705 34.4776 47.6651 34.3249L42.576 32.4199L40.6664 27.343C40.5133 26.9386 40.126 26.6691 39.6936 26.6691C39.2613 26.6691 38.874 26.9386 38.7208 27.343L36.8113 32.4199L31.7221 34.3249Z" fill="#171614"/>
</svg>
