<svg width="34" height="35" viewBox="0 0 34 35" fill="none" xmlns="http://www.w3.org/2000/svg">
<path d="M32.2781 11.5567L22.9419 2.22118C22.7134 1.99254 22.442 1.81117 22.1433 1.68743C21.8447 1.56369 21.5246 1.5 21.2013 1.5C20.878 1.5 20.5579 1.56369 20.2593 1.68743C19.9606 1.81117 19.6892 1.99254 19.4607 2.22118L11.2105 10.4982C9.57067 9.98434 5.82634 9.36433 1.91896 12.5198C1.64963 12.7363 1.42893 13.0072 1.27122 13.3148C1.11352 13.6223 1.02233 13.9596 1.00361 14.3047C0.984894 14.6499 1.03906 14.995 1.16257 15.3178C1.28609 15.6406 1.4762 15.9338 1.72051 16.1783L9.15378 23.6091L2.59121 30.1677C2.36029 30.3986 2.23056 30.7118 2.23056 31.0384C2.23056 31.365 2.36029 31.6783 2.59121 31.9092C2.82214 32.1402 3.13534 32.2699 3.46191 32.2699C3.78849 32.2699 4.10169 32.1402 4.33262 31.9092L10.8906 25.3461L18.3192 32.7754C18.5476 33.0047 18.8189 33.1868 19.1178 33.3111C19.4166 33.4355 19.737 33.4996 20.0606 33.5C20.1191 33.5 20.176 33.5 20.2344 33.5C20.5853 33.4757 20.9268 33.3761 21.2358 33.2081C21.5448 33.0401 21.814 32.8075 22.0251 32.5261C25.0464 28.5107 24.7556 25.2461 24.0541 23.2953L32.2797 15.0382C32.5082 14.8096 32.6894 14.5381 32.813 14.2394C32.9366 13.9406 33.0001 13.6204 33 13.2971C32.9999 12.9738 32.936 12.6537 32.8122 12.3551C32.6883 12.0565 32.5068 11.7852 32.2781 11.5567ZM30.5367 13.2982L21.7266 22.1383C21.5447 22.321 21.4247 22.5561 21.3836 22.8106C21.3424 23.0652 21.3823 23.3261 21.4974 23.5568C22.9527 26.4691 21.2205 29.4938 20.0606 31.0369L3.46191 14.4352C5.32023 12.9367 7.09855 12.5413 8.45845 12.5413C9.32134 12.5295 10.1771 12.6988 10.9706 13.0382C11.202 13.1541 11.4642 13.194 11.7196 13.1523C11.9751 13.1106 12.2109 12.9894 12.3935 12.8059L21.2021 3.9612L30.5367 13.2967V13.2982Z" fill="#171614" stroke="#171614" stroke-width="1.5"/>
</svg>
