<svg width="34" height="35" viewBox="0 0 34 35" fill="none" xmlns="http://www.w3.org/2000/svg">
<path d="M2.08579 29.5858C1.30474 30.3668 1.30474 31.6332 2.08579 32.4142C2.86683 33.1953 4.13316 33.1953 4.91421 32.4142L2.08579 29.5858ZM20 32.5L18.5858 33.9142C19.3668 34.6953 20.6332 34.6953 21.4142 33.9142L20 32.5ZM22.5 23L21.05 21.6225L20.1429 22.5773L20.6617 23.7878L22.5 23ZM31.5 12.5L33.2889 11.6056C33.1927 11.4133 33.0662 11.2378 32.9142 11.0858L31.5 12.5ZM22.5 3.49999L20.9383 4.74938L21.0075 4.83588L21.0858 4.9142L22.5 3.49999ZM11.5 12V14C11.9898 14 12.4626 13.8202 12.8287 13.4948L11.5 12ZM2 14.5L0.505183 13.1713C-0.198348 13.9627 -0.163007 15.1654 0.585785 15.9142L2 14.5ZM4.91421 32.4142L12.4142 24.9142L9.58579 22.0858L2.08579 29.5858L4.91421 32.4142ZM9.58579 24.9142L18.5858 33.9142L21.4142 31.0858L12.4142 22.0858L9.58579 24.9142ZM21.4142 33.9142C24.2268 31.1016 26.2865 26.758 24.3383 22.2122L20.6617 23.7878C21.7135 26.242 20.7732 28.8984 18.5858 31.0858L21.4142 33.9142ZM23.95 24.3775C24.8271 23.4543 25.8716 22.475 26.9684 21.4629C28.0461 20.4684 29.1847 19.4329 30.1713 18.4588C31.1427 17.4998 32.0798 16.4925 32.7097 15.5321C33.0252 15.0511 33.3298 14.4842 33.4895 13.8636C33.6546 13.2218 33.6898 12.4075 33.2889 11.6056L29.7111 13.3944C29.5602 13.0925 29.6176 12.8593 29.6156 12.8668C29.6083 12.8956 29.5566 13.0462 29.365 13.3383C28.9808 13.924 28.301 14.6844 27.3611 15.6123C26.4366 16.525 25.3695 17.4954 24.2557 18.5233C23.1608 19.5336 22.0279 20.5931 21.05 21.6225L23.95 24.3775ZM32.9142 11.0858L23.9142 2.08577L21.0858 4.9142L30.0858 13.9142L32.9142 11.0858ZM24.0617 2.2506C23.5308 1.58686 22.7918 1.11106 21.8835 0.998555C21.0452 0.894715 20.291 1.12957 19.7126 1.40419C18.5981 1.9333 17.4961 2.92545 16.5233 3.89827C15.5157 4.9059 14.4187 6.13302 13.3645 7.27826C12.2826 8.4535 11.2155 9.57693 10.1713 10.5052L12.8287 13.4948C14.0345 12.423 15.2174 11.1715 16.3074 9.98733C17.4251 8.7732 18.4218 7.65657 19.3517 6.7267C20.3164 5.76203 20.9957 5.22292 21.4281 5.01766C21.623 4.92509 21.5837 4.99198 21.3918 4.96822C21.1301 4.93579 20.9692 4.78811 20.9383 4.74938L24.0617 2.2506ZM3.49482 15.8287C5.09236 14.0315 6.68017 13.6064 7.94639 13.5612C8.61587 13.5373 9.23645 13.6202 9.78768 13.7235C10.0855 13.7794 10.2959 13.8272 10.5716 13.883C10.7595 13.9211 11.1393 14 11.5 14V9.99998C11.6107 9.99998 11.6311 10.0164 11.3659 9.96265C11.1885 9.92672 10.852 9.85339 10.5248 9.79205C9.82605 9.66103 8.88413 9.52517 7.80361 9.56376C5.56983 9.64355 2.90764 10.4685 0.505183 13.1713L3.49482 15.8287ZM12.4142 22.0858L3.41422 13.0858L0.585785 15.9142L9.58578 24.9142L12.4142 22.0858Z" fill="#171614"/>
</svg>
