<svg width="36" height="36" viewBox="0 0 36 36" fill="none" xmlns="http://www.w3.org/2000/svg">
<g clip-path="url(#clip0_697_190)">
<path d="M18 0.5C14.5388 0.5 11.1554 1.52636 8.27753 3.44928C5.39967 5.37221 3.15665 8.10533 1.83212 11.303C0.507582 14.5007 0.161024 18.0194 0.836265 21.4141C1.51151 24.8087 3.17822 27.9269 5.62564 30.3744C8.07306 32.8218 11.1913 34.4885 14.5859 35.1637C17.9806 35.839 21.4993 35.4924 24.697 34.1679C27.8947 32.8433 30.6278 30.6003 32.5507 27.7225C34.4736 24.8446 35.5 21.4612 35.5 18C35.5 17.1056 35.4222 16.2111 35.3056 15.3556C34.334 16.7179 33.0502 17.8278 31.5618 18.5924C30.0733 19.3569 28.4233 19.7539 26.75 19.75C24.524 19.75 22.3555 19.0431 20.5573 17.731C18.7591 16.4189 17.4241 14.5696 16.7449 12.4498C16.0657 10.33 16.0774 8.04917 16.7782 5.93639C17.4791 3.82361 18.8329 1.98805 20.6444 0.694444C19.7889 0.577778 18.8944 0.5 18 0.5Z" fill="#1E1E1E"/>
</g>
<defs>
<clipPath id="clip0_697_190">
<rect width="35" height="35" fill="white" transform="translate(0.5 0.5)"/>
</clipPath>
</defs>
</svg>
