<svg width="40" height="39" viewBox="0 0 40 39" fill="none" xmlns="http://www.w3.org/2000/svg">
<path d="M32.3395 19.5675C34.942 16.9199 34.942 12.6323 32.3395 9.98474C30.0364 7.64177 26.4066 7.33718 23.758 9.2631L23.6843 9.31465C23.021 9.7973 22.869 10.7345 23.3434 11.4046C23.8179 12.0747 24.7391 12.234 25.3978 11.7513L25.4715 11.6998C26.9502 10.6267 28.9723 10.7954 30.2529 12.1028C31.7038 13.5789 31.7038 15.9687 30.2529 17.4447L25.0846 22.7117C23.6336 24.1878 21.2844 24.1878 19.8335 22.7117C18.5483 21.4044 18.3825 19.3472 19.4373 17.8477L19.488 17.7728C19.9624 17.098 19.8058 16.1608 19.1471 15.6828C18.4884 15.2049 17.5626 15.3595 17.0927 16.0296L17.0421 16.1046C15.1443 18.7943 15.4437 22.4868 17.7468 24.8298C20.3494 27.4773 24.5641 27.4773 27.1667 24.8298L32.3395 19.5675ZM8.40528 18.471C5.80273 21.1185 5.80273 25.4062 8.40528 28.0537C10.7084 30.3967 14.3382 30.7013 16.9868 28.7753L17.0605 28.7238C17.7238 28.2411 17.8758 27.304 17.4013 26.6339C16.9269 25.9638 16.0056 25.8045 15.3469 26.2871L15.2732 26.3387C13.7946 27.4117 11.7725 27.243 10.4919 25.9357C9.04095 24.4549 9.04095 22.0651 10.4919 20.589L15.6602 15.3267C17.1111 13.8506 19.4603 13.8506 20.9113 15.3267C22.1965 16.6341 22.3623 18.6912 21.3075 20.1954L21.2568 20.2704C20.7823 20.9451 20.939 21.8823 21.5977 22.3603C22.2564 22.8383 23.1822 22.6836 23.6521 22.0135L23.7027 21.9386C25.6005 19.2441 25.3011 15.5516 22.998 13.2087C20.3954 10.5611 16.1807 10.5611 13.5781 13.2087L8.40528 18.471Z" fill="#171614"/>
</svg>
