<svg width="225" height="29" viewBox="0 0 225 29" fill="none" xmlns="http://www.w3.org/2000/svg">
<path d="M47.848 7.86364C47.6946 6.56818 47.0724 5.5625 45.9815 4.84659C44.8906 4.13068 43.5526 3.77273 41.9673 3.77273C40.8082 3.77273 39.794 3.96023 38.9247 4.33523C38.0639 4.71023 37.3906 5.22585 36.9048 5.8821C36.4276 6.53835 36.1889 7.28409 36.1889 8.11932C36.1889 8.81818 36.3551 9.41903 36.6875 9.92188C37.0284 10.4162 37.4631 10.8295 37.9915 11.1619C38.5199 11.4858 39.0739 11.7543 39.6534 11.9673C40.233 12.1719 40.7656 12.3381 41.2514 12.4659L43.9105 13.1818C44.5923 13.3608 45.3509 13.608 46.1861 13.9233C47.0298 14.2386 47.8352 14.669 48.6023 15.2145C49.3778 15.7514 50.017 16.4418 50.5199 17.2855C51.0227 18.1293 51.2741 19.1648 51.2741 20.392C51.2741 21.8068 50.9034 23.0852 50.1619 24.2273C49.429 25.3693 48.3551 26.277 46.9403 26.9503C45.5341 27.6236 43.8253 27.9602 41.8139 27.9602C39.9389 27.9602 38.3153 27.6577 36.9432 27.0526C35.5795 26.4474 34.5057 25.6037 33.7216 24.5213C32.946 23.4389 32.5071 22.1818 32.4048 20.75H35.6776C35.7628 21.7386 36.0952 22.5568 36.6747 23.2045C37.2628 23.8437 38.0043 24.321 38.8991 24.6364C39.8026 24.9432 40.7741 25.0966 41.8139 25.0966C43.0241 25.0966 44.1108 24.9006 45.0739 24.5085C46.0369 24.108 46.7997 23.554 47.3622 22.8466C47.9247 22.1307 48.206 21.2955 48.206 20.3409C48.206 19.4716 47.9631 18.7642 47.4773 18.2188C46.9915 17.6733 46.3523 17.2301 45.5597 16.8892C44.767 16.5483 43.9105 16.25 42.9901 15.9943L39.7685 15.0739C37.723 14.4858 36.1037 13.6463 34.9105 12.5554C33.7173 11.4645 33.1207 10.0369 33.1207 8.27273C33.1207 6.80682 33.517 5.52841 34.3097 4.4375C35.1108 3.33807 36.1847 2.48579 37.5312 1.88068C38.8864 1.26704 40.3991 0.960226 42.0696 0.960226C43.7571 0.960226 45.2571 1.26278 46.5696 1.8679C47.8821 2.46449 48.9219 3.28267 49.6889 4.32244C50.4645 5.36221 50.8736 6.54261 50.9162 7.86364H47.848ZM59.0948 15.6875V27.5H56.0778V1.31818H59.0948V10.9318H59.3505C59.8107 9.91761 60.5011 9.11222 61.4215 8.51562C62.3505 7.91051 63.5863 7.60795 65.1289 7.60795C66.467 7.60795 67.6388 7.87642 68.6445 8.41335C69.6502 8.94176 70.43 9.75568 70.984 10.8551C71.5465 11.946 71.8278 13.3352 71.8278 15.0227V27.5H68.8107V15.2273C68.8107 13.6676 68.4059 12.4616 67.5962 11.6094C66.7951 10.7486 65.6829 10.3182 64.2596 10.3182C63.271 10.3182 62.3846 10.527 61.6005 10.9446C60.8249 11.3622 60.2113 11.9716 59.7596 12.7727C59.3164 13.5739 59.0948 14.5455 59.0948 15.6875ZM85.3246 27.9091C83.5518 27.9091 81.9964 27.4872 80.6584 26.6435C79.3288 25.7997 78.2891 24.6193 77.5391 23.1023C76.7976 21.5852 76.4268 19.8125 76.4268 17.7841C76.4268 15.7386 76.7976 13.9531 77.5391 12.4276C78.2891 10.902 79.3288 9.71733 80.6584 8.87358C81.9964 8.02983 83.5518 7.60795 85.3246 7.60795C87.0973 7.60795 88.6484 8.02983 89.978 8.87358C91.3161 9.71733 92.3558 10.902 93.0973 12.4276C93.8473 13.9531 94.2223 15.7386 94.2223 17.7841C94.2223 19.8125 93.8473 21.5852 93.0973 23.1023C92.3558 24.6193 91.3161 25.7997 89.978 26.6435C88.6484 27.4872 87.0973 27.9091 85.3246 27.9091ZM85.3246 25.1989C86.6712 25.1989 87.7791 24.8537 88.6484 24.1634C89.5178 23.473 90.1612 22.5653 90.5788 21.4403C90.9964 20.3153 91.2053 19.0966 91.2053 17.7841C91.2053 16.4716 90.9964 15.2486 90.5788 14.1151C90.1612 12.9815 89.5178 12.0653 88.6484 11.3665C87.7791 10.6676 86.6712 10.3182 85.3246 10.3182C83.978 10.3182 82.87 10.6676 82.0007 11.3665C81.1314 12.0653 80.4879 12.9815 80.0703 14.1151C79.6527 15.2486 79.4439 16.4716 79.4439 17.7841C79.4439 19.0966 79.6527 20.3153 80.0703 21.4403C80.4879 22.5653 81.1314 23.473 82.0007 24.1634C82.87 24.8537 83.978 25.1989 85.3246 25.1989ZM102.609 27.5L96.6257 7.86364H99.7962L104.04 22.8977H104.245L108.438 7.86364H111.66L115.802 22.8466H116.006L120.251 7.86364H123.421L117.438 27.5H114.472L110.177 12.4148H109.87L105.575 27.5H102.609ZM137.944 27.5V1.31818H153.643V4.13068H141.114V12.9773H152.467V15.7898H141.114V27.5H137.944ZM160.607 1.31818L167.357 12.2102H167.561L174.311 1.31818H178.044L169.811 14.4091L178.044 27.5H174.311L167.561 16.8125H167.357L160.607 27.5H156.874L165.311 14.4091L156.874 1.31818H160.607Z" fill="#171614"/>
<path d="M210.47 22.6725C211.316 23.5707 212.69 23.5707 213.536 22.6725L224.365 11.175C225.212 10.2768 225.212 8.81807 224.365 7.91983C223.519 7.0216 222.146 7.0216 221.299 7.91983L212 17.7933L202.701 7.92702C201.854 7.02878 200.481 7.02878 199.635 7.92702C198.788 8.82525 198.788 10.284 199.635 11.1822L210.464 22.6797L210.47 22.6725Z" fill="#171614"/>
</svg>
