<svg width="191" height="29" viewBox="0 0 191 29" fill="none" xmlns="http://www.w3.org/2000/svg">
<path d="M24.1638 26.052C25.6758 26.052 26.8398 25.728 27.6558 25.08C28.4718 24.408 28.8798 23.436 28.8798 22.164C28.8798 21.108 28.5918 20.22 28.0158 19.5C27.4638 18.78 26.5518 18.228 25.2798 17.844L22.3638 16.98C20.5398 16.428 19.1958 15.6 18.3318 14.496C17.4678 13.368 17.0358 11.988 17.0358 10.356C17.0358 9.108 17.2758 7.98 17.7558 6.972C18.2598 5.964 19.0518 5.16 20.1318 4.56C21.2358 3.96 22.6758 3.66 24.4518 3.66C25.5318 3.66 26.6478 3.792 27.7998 4.056C28.9518 4.296 30.1158 4.692 31.2918 5.244L30.2838 7.944C29.1318 7.44 28.0878 7.08 27.1518 6.864C26.2398 6.624 25.3638 6.504 24.5238 6.504C23.1558 6.504 22.0878 6.792 21.3198 7.368C20.5758 7.92 20.2038 8.844 20.2038 10.14C20.2038 11.076 20.4558 11.868 20.9598 12.516C21.4638 13.14 22.3638 13.656 23.6598 14.064L26.5758 14.928C30.2238 16.008 32.0478 18.336 32.0478 21.912C32.0478 23.976 31.4238 25.656 30.1758 26.952C28.9278 28.224 26.9238 28.86 24.1638 28.86C23.0358 28.86 21.8358 28.728 20.5638 28.464C19.3158 28.176 18.0198 27.732 16.6758 27.132L17.6478 24.468C18.9198 25.044 20.0598 25.452 21.0678 25.692C22.0998 25.932 23.1318 26.052 24.1638 26.052ZM45.2907 13.092C44.6187 13.092 43.8267 13.26 42.9147 13.596C42.0267 13.932 40.9467 14.616 39.6747 15.648V28.5H36.7227V1.86H39.6747V13.056C40.9227 12 42.0507 11.28 43.0587 10.896C44.0667 10.512 45.0507 10.32 46.0107 10.32C47.6667 10.32 48.9267 10.848 49.7907 11.904C50.6787 12.936 51.1227 14.412 51.1227 16.332V28.5H48.1707V16.764C48.1707 14.316 47.2107 13.092 45.2907 13.092ZM71.4011 18.492V20.652C71.4011 23.196 70.7411 25.2 69.4211 26.664C68.1251 28.128 66.2651 28.86 63.8411 28.86C61.4411 28.86 59.5811 28.128 58.2611 26.664C56.9411 25.2 56.2811 23.196 56.2811 20.652V18.492C56.2811 15.996 56.9291 14.016 58.2251 12.552C59.5451 11.064 61.4171 10.32 63.8411 10.32C66.2651 10.32 68.1251 11.064 69.4211 12.552C70.7411 14.016 71.4011 15.996 71.4011 18.492ZM68.3411 18.492C68.3411 16.788 67.9571 15.456 67.1891 14.496C66.4211 13.512 65.3051 13.02 63.8411 13.02C62.4011 13.02 61.2851 13.512 60.4931 14.496C59.7251 15.456 59.3411 16.788 59.3411 18.492V20.652C59.3411 22.428 59.7251 23.796 60.4931 24.756C61.2851 25.716 62.4011 26.196 63.8411 26.196C65.3051 26.196 66.4211 25.716 67.1891 24.756C67.9571 23.796 68.3411 22.428 68.3411 20.652V18.492ZM98.117 10.68L93.545 28.5H90.125L86.381 13.884L82.529 28.5H79.109L74.573 10.68H77.597L79.397 18.132L81.017 25.512L84.869 10.68H88.001L91.853 25.584L93.437 18.168L95.201 10.68H98.117ZM122.906 18.204H114.014V28.5H110.882V4.02H123.986V6.972H114.014V15.252H122.906V18.204ZM140.721 28.5L134.889 18.528L129.273 28.5H125.997L133.269 15.864L126.357 4.02H129.921L135.321 13.344L140.613 4.02H143.853L136.941 16.008L144.249 28.5H140.721Z" fill="#171614"/>
<path d="M176.47 22.6725C177.316 23.5707 178.69 23.5707 179.536 22.6725L190.365 11.175C191.212 10.2768 191.212 8.81807 190.365 7.91983C189.519 7.0216 188.146 7.0216 187.299 7.91983L178 17.7933L168.701 7.92702C167.854 7.02878 166.481 7.02878 165.635 7.92702C164.788 8.82525 164.788 10.284 165.635 11.1822L176.464 22.6797L176.47 22.6725Z" fill="#171614"/>
</svg>
