<svg width="32" height="33" viewBox="0 0 32 33" fill="none" xmlns="http://www.w3.org/2000/svg">
<path d="M21.8333 30.5H25.9167C26.9996 30.5 28.0382 30.0698 28.804 29.304C29.5698 28.5382 30 27.4996 30 26.4167V22.3333M30 10.6667V6.58333C30 5.50037 29.5698 4.46175 28.804 3.69598C28.0382 2.93021 26.9996 2.5 25.9167 2.5H21.8333M10.1667 30.5H6.08333C5.00037 30.5 3.96175 30.0698 3.19598 29.304C2.43021 28.5382 2 27.4996 2 26.4167V22.3333M2 10.6667V6.58333C2 5.50037 2.43021 4.46175 3.19598 3.69598C3.96175 2.93021 5.00037 2.5 6.08333 2.5H10.1667" stroke="#171614" stroke-width="4" stroke-linecap="round" stroke-linejoin="round"/>
</svg>
