<svg width="64" height="18" viewBox="0 0 64 18" fill="none" xmlns="http://www.w3.org/2000/svg">
<path d="M2.97534 0.839244L7.94334 12.9352L12.9353 0.839244H15.3113V17.1592H13.2713V10.1752L13.5353 3.88724L8.85534 15.2392H6.88734L2.30334 3.83924L2.56734 10.1752V17.1592H0.527344V0.839244H2.97534Z" fill="white"/>
<path d="M31.5378 7.19924V10.7752C31.5378 12.8072 31.0258 14.4232 30.0018 15.6232C28.9938 16.8072 27.5378 17.3992 25.6338 17.3992C23.7298 17.3992 22.2658 16.8072 21.2418 15.6232C20.2338 14.4232 19.7298 12.8072 19.7298 10.7752V7.19924C19.7298 5.18324 20.2338 3.58324 21.2418 2.39924C22.2658 1.19924 23.7298 0.599243 25.6338 0.599243C27.5378 0.599243 28.9938 1.19924 30.0018 2.39924C31.0258 3.58324 31.5378 5.18324 31.5378 7.19924ZM29.3778 7.19924C29.3778 5.71124 29.0578 4.56724 28.4178 3.76724C27.7938 2.95124 26.8658 2.54324 25.6338 2.54324C24.4178 2.54324 23.4898 2.95124 22.8498 3.76724C22.2098 4.56724 21.8898 5.71124 21.8898 7.19924V10.7752C21.8898 12.2792 22.2098 13.4392 22.8498 14.2552C23.4898 15.0712 24.4178 15.4792 25.6338 15.4792C26.8658 15.4792 27.7938 15.0712 28.4178 14.2552C29.0578 13.4392 29.3778 12.2792 29.3778 10.7752V7.19924Z" fill="white"/>
<path d="M35.9648 17.1592V0.839244H38.1488C39.6048 2.91924 40.9408 5.01524 42.1568 7.12724C43.3888 9.22324 44.5408 11.4152 45.6128 13.7032L45.3728 7.46324V0.839244H47.4128V17.1592H45.2288C44.1088 14.8232 42.9488 12.5512 41.7488 10.3432C40.5648 8.11924 39.2688 5.95124 37.8608 3.83924L38.0048 10.4872V17.1592H35.9648Z" fill="white"/>
<path d="M63.6472 7.19924V10.7752C63.6472 12.8072 63.1352 14.4232 62.1112 15.6232C61.1032 16.8072 59.6472 17.3992 57.7432 17.3992C55.8392 17.3992 54.3752 16.8072 53.3512 15.6232C52.3432 14.4232 51.8392 12.8072 51.8392 10.7752V7.19924C51.8392 5.18324 52.3432 3.58324 53.3512 2.39924C54.3752 1.19924 55.8392 0.599243 57.7432 0.599243C59.6472 0.599243 61.1032 1.19924 62.1112 2.39924C63.1352 3.58324 63.6472 5.18324 63.6472 7.19924ZM61.4872 7.19924C61.4872 5.71124 61.1672 4.56724 60.5272 3.76724C59.9032 2.95124 58.9752 2.54324 57.7432 2.54324C56.5272 2.54324 55.5992 2.95124 54.9592 3.76724C54.3192 4.56724 53.9992 5.71124 53.9992 7.19924V10.7752C53.9992 12.2792 54.3192 13.4392 54.9592 14.2552C55.5992 15.0712 56.5272 15.4792 57.7432 15.4792C58.9752 15.4792 59.9032 15.0712 60.5272 14.2552C61.1672 13.4392 61.4872 12.2792 61.4872 10.7752V7.19924Z" fill="white"/>
<path d="M2.97534 0.839244L7.94334 12.9352L12.9353 0.839244H15.3113V17.1592H13.2713V10.1752L13.5353 3.88724L8.85534 15.2392H6.88734L2.30334 3.83924L2.56734 10.1752V17.1592H0.527344V0.839244H2.97534Z" stroke="white" stroke-width="0.603846"/>
<path d="M31.5378 7.19924V10.7752C31.5378 12.8072 31.0258 14.4232 30.0018 15.6232C28.9938 16.8072 27.5378 17.3992 25.6338 17.3992C23.7298 17.3992 22.2658 16.8072 21.2418 15.6232C20.2338 14.4232 19.7298 12.8072 19.7298 10.7752V7.19924C19.7298 5.18324 20.2338 3.58324 21.2418 2.39924C22.2658 1.19924 23.7298 0.599243 25.6338 0.599243C27.5378 0.599243 28.9938 1.19924 30.0018 2.39924C31.0258 3.58324 31.5378 5.18324 31.5378 7.19924ZM29.3778 7.19924C29.3778 5.71124 29.0578 4.56724 28.4178 3.76724C27.7938 2.95124 26.8658 2.54324 25.6338 2.54324C24.4178 2.54324 23.4898 2.95124 22.8498 3.76724C22.2098 4.56724 21.8898 5.71124 21.8898 7.19924V10.7752C21.8898 12.2792 22.2098 13.4392 22.8498 14.2552C23.4898 15.0712 24.4178 15.4792 25.6338 15.4792C26.8658 15.4792 27.7938 15.0712 28.4178 14.2552C29.0578 13.4392 29.3778 12.2792 29.3778 10.7752V7.19924Z" stroke="white" stroke-width="0.603846"/>
<path d="M35.9648 17.1592V0.839244H38.1488C39.6048 2.91924 40.9408 5.01524 42.1568 7.12724C43.3888 9.22324 44.5408 11.4152 45.6128 13.7032L45.3728 7.46324V0.839244H47.4128V17.1592H45.2288C44.1088 14.8232 42.9488 12.5512 41.7488 10.3432C40.5648 8.11924 39.2688 5.95124 37.8608 3.83924L38.0048 10.4872V17.1592H35.9648Z" stroke="white" stroke-width="0.603846"/>
<path d="M63.6472 7.19924V10.7752C63.6472 12.8072 63.1352 14.4232 62.1112 15.6232C61.1032 16.8072 59.6472 17.3992 57.7432 17.3992C55.8392 17.3992 54.3752 16.8072 53.3512 15.6232C52.3432 14.4232 51.8392 12.8072 51.8392 10.7752V7.19924C51.8392 5.18324 52.3432 3.58324 53.3512 2.39924C54.3752 1.19924 55.8392 0.599243 57.7432 0.599243C59.6472 0.599243 61.1032 1.19924 62.1112 2.39924C63.1352 3.58324 63.6472 5.18324 63.6472 7.19924ZM61.4872 7.19924C61.4872 5.71124 61.1672 4.56724 60.5272 3.76724C59.9032 2.95124 58.9752 2.54324 57.7432 2.54324C56.5272 2.54324 55.5992 2.95124 54.9592 3.76724C54.3192 4.56724 53.9992 5.71124 53.9992 7.19924V10.7752C53.9992 12.2792 54.3192 13.4392 54.9592 14.2552C55.5992 15.0712 56.5272 15.4792 57.7432 15.4792C58.9752 15.4792 59.9032 15.0712 60.5272 14.2552C61.1672 13.4392 61.4872 12.2792 61.4872 10.7752V7.19924Z" stroke="white" stroke-width="0.603846"/>
</svg>
