<svg width="67" height="64" viewBox="0 0 67 64" fill="none" xmlns="http://www.w3.org/2000/svg">
<path d="M21.5362 20.7635V22.7075H12.6082V6.38746H14.6962V20.7635H21.5362Z" fill="#403D37"/>
<path d="M35.4623 12.7475V16.3235C35.4623 18.3555 34.9503 19.9715 33.9263 21.1715C32.9183 22.3555 31.4623 22.9475 29.5583 22.9475C27.6543 22.9475 26.1903 22.3555 25.1663 21.1715C24.1583 19.9715 23.6543 18.3555 23.6543 16.3235V12.7475C23.6543 10.7315 24.1583 9.13146 25.1663 7.94746C26.1903 6.74746 27.6543 6.14746 29.5583 6.14746C31.4623 6.14746 32.9183 6.74746 33.9263 7.94746C34.9503 9.13146 35.4623 10.7315 35.4623 12.7475ZM33.3023 12.7475C33.3023 11.2595 32.9823 10.1155 32.3423 9.31546C31.7183 8.49946 30.7903 8.09146 29.5583 8.09146C28.3423 8.09146 27.4143 8.49946 26.7743 9.31546C26.1343 10.1155 25.8143 11.2595 25.8143 12.7475V16.3235C25.8143 17.8275 26.1343 18.9875 26.7743 19.8035C27.4143 20.6195 28.3423 21.0275 29.5583 21.0275C30.7903 21.0275 31.7183 20.6195 32.3423 19.8035C32.9823 18.9875 33.3023 17.8275 33.3023 16.3235V12.7475Z" fill="#403D37"/>
<path d="M47.9054 15.8435H41.9774V22.7075H39.8894V6.38746H48.6254V8.35546H41.9774V13.8755H47.9054V15.8435Z" fill="#403D37"/>
<path d="M54.118 22.7075H52.03V6.38746H54.118V22.7075Z" fill="#403D37"/>
<path d="M26.5173 51.891C25.8185 51.891 25.2887 51.7107 24.928 51.35C24.5673 51.0118 24.387 50.5609 24.387 49.9973C24.387 49.3887 24.556 48.8251 24.8942 48.3066C25.2549 47.7655 25.717 47.3372 26.2806 47.0216C26.8442 46.706 27.4304 46.5482 28.039 46.5482C28.3096 46.5482 28.5801 46.582 28.8506 46.6496C29.1437 46.6947 29.4255 46.7736 29.696 46.8863V31.6694L42.3429 28.4231V45.6352C42.3429 46.6045 42.1288 47.4612 41.7004 48.2051C41.2947 48.9265 40.7536 49.5014 40.0773 49.9297C39.4235 50.3355 38.7021 50.5384 37.9131 50.5384C37.2143 50.5384 36.6845 50.3693 36.3238 50.0312C35.9631 49.6705 35.7828 49.2083 35.7828 48.6447C35.7828 48.036 35.9518 47.4725 36.29 46.954C36.6507 46.4129 37.1128 45.9846 37.6764 45.669C38.24 45.3534 38.8261 45.1956 39.4348 45.1956C39.7053 45.1956 39.9759 45.2294 40.2464 45.297C40.5395 45.3421 40.8212 45.421 41.0918 45.5337V30.3844L41.6666 30.8578L30.4399 33.9688L30.9472 33.1573V46.9878C30.9472 47.9571 30.733 48.8138 30.3047 49.5577C29.8989 50.2791 29.3578 50.8427 28.6815 51.2485C28.0278 51.6768 27.3064 51.891 26.5173 51.891Z" fill="#403D37"/>
<path d="M21.5362 20.7635V22.7075H12.6082V6.38746H14.6962V20.7635H21.5362Z" stroke="#403D37" stroke-width="1.20769"/>
<path d="M35.4623 12.7475V16.3235C35.4623 18.3555 34.9503 19.9715 33.9263 21.1715C32.9183 22.3555 31.4623 22.9475 29.5583 22.9475C27.6543 22.9475 26.1903 22.3555 25.1663 21.1715C24.1583 19.9715 23.6543 18.3555 23.6543 16.3235V12.7475C23.6543 10.7315 24.1583 9.13146 25.1663 7.94746C26.1903 6.74746 27.6543 6.14746 29.5583 6.14746C31.4623 6.14746 32.9183 6.74746 33.9263 7.94746C34.9503 9.13146 35.4623 10.7315 35.4623 12.7475ZM33.3023 12.7475C33.3023 11.2595 32.9823 10.1155 32.3423 9.31546C31.7183 8.49946 30.7903 8.09146 29.5583 8.09146C28.3423 8.09146 27.4143 8.49946 26.7743 9.31546C26.1343 10.1155 25.8143 11.2595 25.8143 12.7475V16.3235C25.8143 17.8275 26.1343 18.9875 26.7743 19.8035C27.4143 20.6195 28.3423 21.0275 29.5583 21.0275C30.7903 21.0275 31.7183 20.6195 32.3423 19.8035C32.9823 18.9875 33.3023 17.8275 33.3023 16.3235V12.7475Z" stroke="#403D37" stroke-width="1.20769"/>
<path d="M47.9054 15.8435H41.9774V22.7075H39.8894V6.38746H48.6254V8.35546H41.9774V13.8755H47.9054V15.8435Z" stroke="#403D37" stroke-width="1.20769"/>
<path d="M54.118 22.7075H52.03V6.38746H54.118V22.7075Z" stroke="#403D37" stroke-width="1.20769"/>
<path d="M26.5173 51.891C25.8185 51.891 25.2887 51.7107 24.928 51.35C24.5673 51.0118 24.387 50.5609 24.387 49.9973C24.387 49.3887 24.556 48.8251 24.8942 48.3066C25.2549 47.7655 25.717 47.3372 26.2806 47.0216C26.8442 46.706 27.4304 46.5482 28.039 46.5482C28.3096 46.5482 28.5801 46.582 28.8506 46.6496C29.1437 46.6947 29.4255 46.7736 29.696 46.8863V31.6694L42.3429 28.4231V45.6352C42.3429 46.6045 42.1288 47.4612 41.7004 48.2051C41.2947 48.9265 40.7536 49.5014 40.0773 49.9297C39.4235 50.3355 38.7021 50.5384 37.9131 50.5384C37.2143 50.5384 36.6845 50.3693 36.3238 50.0312C35.9631 49.6705 35.7828 49.2083 35.7828 48.6447C35.7828 48.036 35.9518 47.4725 36.29 46.954C36.6507 46.4129 37.1128 45.9846 37.6764 45.669C38.24 45.3534 38.8261 45.1956 39.4348 45.1956C39.7053 45.1956 39.9759 45.2294 40.2464 45.297C40.5395 45.3421 40.8212 45.421 41.0918 45.5337V30.3844L41.6666 30.8578L30.4399 33.9688L30.9472 33.1573V46.9878C30.9472 47.9571 30.733 48.8138 30.3047 49.5577C29.8989 50.2791 29.3578 50.8427 28.6815 51.2485C28.0278 51.6768 27.3064 51.891 26.5173 51.891Z" stroke="#403D37" stroke-width="1.20769"/>
</svg>
